<svg width="25" height="25" viewBox="0 0 25 25" fill="none" xmlns="http://www.w3.org/2000/svg">
<path fill-rule="evenodd" clip-rule="evenodd" d="M7.77637 1.11038C8.99824 1.05413 9.38783 1.04163 12.5003 1.04163C15.6128 1.04163 16.0024 1.05517 17.2232 1.11038C18.4441 1.16558 19.2774 1.36038 20.0066 1.64267C20.7701 1.93121 21.4628 2.38225 22.0357 2.96558C22.6191 3.53746 23.0691 4.22913 23.3566 4.99371C23.6399 5.72288 23.8337 6.55621 23.8899 7.77496C23.9462 8.99892 23.9587 9.3885 23.9587 12.5C23.9587 15.6125 23.9451 16.002 23.8899 17.2239C23.8347 18.4427 23.6399 19.276 23.3566 20.0052C23.0691 20.7698 22.6183 21.4627 22.0357 22.0354C21.4628 22.6187 20.7701 23.0687 20.0066 23.3562C19.2774 23.6395 18.4441 23.8333 17.2253 23.8895C16.0024 23.9458 15.6128 23.9583 12.5003 23.9583C9.38783 23.9583 8.99824 23.9447 7.77637 23.8895C6.55762 23.8343 5.72428 23.6395 4.99512 23.3562C4.23045 23.0687 3.53764 22.6179 2.96491 22.0354C2.38197 21.4632 1.93086 20.7707 1.64303 20.0062C1.36074 19.277 1.16699 18.4437 1.11074 17.225C1.05449 16.001 1.04199 15.6114 1.04199 12.5C1.04199 9.38746 1.05553 8.99788 1.11074 7.77704C1.16595 6.55621 1.36074 5.72288 1.64303 4.99371C1.93129 4.22921 2.38274 3.53674 2.96595 2.96454C3.53787 2.38173 4.22998 1.93063 4.99408 1.64267C5.72324 1.36038 6.55658 1.16663 7.77533 1.11038H7.77637ZM17.1305 3.17288C15.9222 3.11767 15.5597 3.10621 12.5003 3.10621C9.44095 3.10621 9.07845 3.11767 7.87012 3.17288C6.75241 3.22392 6.14616 3.41038 5.74199 3.56767C5.20762 3.776 4.82533 4.02288 4.42428 4.42392C4.04412 4.79376 3.75155 5.244 3.56803 5.74163C3.41074 6.14579 3.22428 6.75204 3.17324 7.86975C3.11803 9.07808 3.10658 9.44058 3.10658 12.5C3.10658 15.5593 3.11803 15.9218 3.17324 17.1302C3.22428 18.2479 3.41074 18.8541 3.56803 19.2583C3.75137 19.7552 4.04408 20.2062 4.42428 20.576C4.79408 20.9562 5.24512 21.2489 5.74199 21.4323C6.14616 21.5895 6.75241 21.776 7.87012 21.827C9.07845 21.8822 9.43991 21.8937 12.5003 21.8937C15.5607 21.8937 15.9222 21.8822 17.1305 21.827C18.2482 21.776 18.8545 21.5895 19.2587 21.4323C19.793 21.2239 20.1753 20.977 20.5764 20.576C20.9566 20.2062 21.2493 19.7552 21.4326 19.2583C21.5899 18.8541 21.7764 18.2479 21.8274 17.1302C21.8826 15.9218 21.8941 15.5593 21.8941 12.5C21.8941 9.44058 21.8826 9.07808 21.8274 7.86975C21.7764 6.75204 21.5899 6.14579 21.4326 5.74163C21.2243 5.20725 20.9774 4.82496 20.5764 4.42392C20.2065 4.04378 19.7563 3.75122 19.2587 3.56767C18.8545 3.41038 18.2482 3.22392 17.1305 3.17288ZM11.0368 16.0323C11.8541 16.3725 12.7643 16.4184 13.6117 16.1622C14.4592 15.9059 15.1914 15.3634 15.6833 14.6273C16.1751 13.8912 16.3962 13.0071 16.3087 12.1261C16.2212 11.2451 15.8305 10.4218 15.2035 9.79683C14.8037 9.39733 14.3203 9.09143 13.7882 8.90115C13.256 8.71088 12.6883 8.64096 12.1258 8.69643C11.5634 8.75191 11.0203 8.93139 10.5355 9.22197C10.0508 9.51255 9.63652 9.90698 9.32252 10.3769C9.00851 10.8468 8.80261 11.3805 8.71961 11.9395C8.63662 12.4985 8.67861 13.069 8.84255 13.6099C9.0065 14.1507 9.28833 14.6485 9.66774 15.0674C10.0472 15.4862 10.5147 15.8158 11.0368 16.0323ZM8.33574 8.33538C8.88264 7.78847 9.53191 7.35465 10.2465 7.05867C10.961 6.76269 11.7269 6.61035 12.5003 6.61035C13.2738 6.61035 14.0396 6.76269 14.7542 7.05867C15.4687 7.35465 16.118 7.78847 16.6649 8.33538C17.2118 8.88228 17.6456 9.53154 17.9416 10.2461C18.2376 10.9607 18.3899 11.7265 18.3899 12.5C18.3899 13.2734 18.2376 14.0393 17.9416 14.7538C17.6456 15.4684 17.2118 16.1176 16.6649 16.6645C15.5604 17.7691 14.0623 18.3896 12.5003 18.3896C10.9383 18.3896 9.44026 17.7691 8.33574 16.6645C7.23123 15.56 6.61072 14.062 6.61072 12.5C6.61072 10.9379 7.23123 9.43989 8.33574 8.33538ZM19.6962 7.48746C19.8317 7.35961 19.9402 7.20588 20.0152 7.03535C20.0903 6.86482 20.1303 6.68097 20.1331 6.49468C20.1358 6.30839 20.1011 6.12345 20.031 5.9508C19.961 5.77816 19.857 5.62132 19.7253 5.48958C19.5935 5.35784 19.4367 5.25387 19.2641 5.18383C19.0914 5.11379 18.9065 5.0791 18.7202 5.08182C18.5339 5.08453 18.35 5.1246 18.1795 5.19964C18.009 5.27469 17.8553 5.38318 17.7274 5.51871C17.4788 5.78228 17.3426 6.13238 17.3479 6.49468C17.3532 6.85698 17.4995 7.20296 17.7557 7.45917C18.0119 7.71538 18.3579 7.86166 18.7202 7.86694C19.0825 7.87222 19.4326 7.73609 19.6962 7.48746Z" fill="url(#paint0_linear_115_578)"/>
<defs>
<linearGradient id="paint0_linear_115_578" x1="-0.937164" y1="-7.06254" x2="22.5316" y2="38.6875" gradientUnits="userSpaceOnUse">
<stop offset="0.158028" stop-color="#8A04B9"/>
<stop offset="0.360634" stop-color="#C80CB5"/>
<stop offset="0.534989" stop-color="#CF8023" stop-opacity="0.92"/>
<stop offset="0.749695" stop-color="#FB1B43"/>
</linearGradient>
</defs>
</svg>
