<svg width="25" height="25" viewBox="0 0 25 25" fill="none" xmlns="http://www.w3.org/2000/svg">
<path d="M17.0418 14.5833C17.1252 13.8958 17.1877 13.2083 17.1877 12.5C17.1877 11.7916 17.1252 11.1041 17.0418 10.4166H20.5627C20.7293 11.0833 20.8335 11.7812 20.8335 12.5C20.8335 13.2187 20.7293 13.9166 20.5627 14.5833M15.1981 20.375C15.8231 19.2187 16.3022 17.9687 16.6356 16.6666H19.7085C18.6993 18.4044 17.0982 19.7208 15.1981 20.375ZM14.9377 14.5833H10.0627C9.9585 13.8958 9.896 13.2083 9.896 12.5C9.896 11.7916 9.9585 11.0937 10.0627 10.4166H14.9377C15.0314 11.0937 15.1043 11.7916 15.1043 12.5C15.1043 13.2083 15.0314 13.8958 14.9377 14.5833ZM12.5002 20.7916C11.6356 19.5416 10.9377 18.1562 10.5106 16.6666H14.4897C14.0627 18.1562 13.3647 19.5416 12.5002 20.7916ZM8.3335 8.33331H5.29183C6.29064 6.59083 7.89057 5.27236 9.79183 4.62498C9.16683 5.78123 8.69808 7.03123 8.3335 8.33331ZM5.29183 16.6666H8.3335C8.69808 17.9687 9.16683 19.2187 9.79183 20.375C7.89456 19.7205 6.29688 18.4039 5.29183 16.6666ZM4.43766 14.5833C4.271 13.9166 4.16683 13.2187 4.16683 12.5C4.16683 11.7812 4.271 11.0833 4.43766 10.4166H7.9585C7.87516 11.1041 7.81266 11.7916 7.81266 12.5C7.81266 13.2083 7.87516 13.8958 7.9585 14.5833M12.5002 4.1979C13.3647 5.4479 14.0627 6.84373 14.4897 8.33331H10.5106C10.9377 6.84373 11.6356 5.4479 12.5002 4.1979ZM19.7085 8.33331H16.6356C16.3096 7.04316 15.8268 5.79779 15.1981 4.62498C17.1147 5.28123 18.7085 6.60415 19.7085 8.33331ZM12.5002 2.08331C6.73975 2.08331 2.0835 6.77081 2.0835 12.5C2.0835 15.2627 3.18096 17.9122 5.13447 19.8657C6.10174 20.833 7.25007 21.6002 8.51388 22.1237C9.77768 22.6472 11.1322 22.9166 12.5002 22.9166C15.2628 22.9166 17.9124 21.8192 19.8659 19.8657C21.8194 17.9122 22.9168 15.2627 22.9168 12.5C22.9168 11.132 22.6474 9.7775 22.1239 8.51369C21.6004 7.24989 20.8331 6.10156 19.8659 5.13428C18.8986 4.16701 17.7503 3.39972 16.4864 2.87623C15.2226 2.35275 13.8681 2.08331 12.5002 2.08331Z" fill="url(#paint0_radial_83_155)"/>
<defs>
<radialGradient id="paint0_radial_83_155" cx="0" cy="0" r="1" gradientUnits="userSpaceOnUse" gradientTransform="translate(12.5002 12.5) rotate(90) scale(10.4167)">
<stop offset="0.390625" stop-color="#FF8C32"/>
<stop offset="1" stop-color="#AA4B00"/>
</radialGradient>
</defs>
</svg>
